<?xml version="1.0" ?><!-- Uploaded to: SVG Repo, www.svgrepo.com, Generator: SVG Repo Mixer Tools -->
<svg fill="#f55353" width="24px" height="24px" viewBox="0 -0.08 20 20" data-name="Capa 1" id="Capa_1" xmlns="http://www.w3.org/2000/svg"><path d="M14.32,6.87H5.68a.38.38,0,0,0-.38.38.37.37,0,0,0,.38.37h8.64a.37.37,0,0,0,.38-.37A.38.38,0,0,0,14.32,6.87Z"/><path d="M12.32,9.56H7.68a.38.38,0,1,0,0,.75h4.64a.38.38,0,1,0,0-.75Z"/><path d="M11.32,12.22H8.68a.38.38,0,1,0,0,.75h2.64a.38.38,0,1,0,0-.75Z"/></svg>